<svg xmlns="http://www.w3.org/2000/svg" fill="none" viewBox="0 0 34 34"><path fill="#FF6D1F" d="M16.9997.333008C7.81565.333008.333008 7.81565.333008 16.9997c0 9.184 7.482642 16.6666 16.666692 16.6666 9.184 0 16.6666-7.4826 16.6666-16.6666 0-9.18405-7.4826-16.666692-16.6666-16.666692Zm0 3.333332c7.3871 0 13.3333 5.94618 13.3333 13.33336 0 7.3871-5.9462 13.3333-13.3333 13.3333-7.38718 0-13.33336-5.9462-13.33336-13.3333 0-7.38718 5.94618-13.33336 13.33336-13.33336Zm-1.6667 5V15.333H8.66634v3.3333H15.333v6.6667h3.3333v-6.6667h6.6667V15.333h-6.6667V8.66634H15.333Z"/></svg>