<svg xmlns="http://www.w3.org/2000/svg" fill="none" viewBox="0 0 33 33">
  <path fill="#000" d="M13.8262 4.20752c-5.29655 0-9.61868 4.32213-9.61868 9.61868 0 5.2965 4.32213 9.6186 9.61868 9.6186 2.1712 0 4.1718-.7343 5.7849-1.9564l6.2125 6.2112c.1222.1274.2687.229.4307.299.162.0701.3364.1071.5129.1089.1765.0018.3516-.0317.515-.0984.1634-.0667.3119-.1654.4367-.2902.1248-.1248.2235-.2733.2902-.4367.0667-.1634.1002-.3385.0984-.515-.0018-.1765-.0388-.3509-.1089-.5129-.07-.162-.1716-.3085-.299-.4307l-6.2112-6.2125c1.2221-1.6131 1.9564-3.6137 1.9564-5.7849 0-5.29655-4.3221-9.61868-9.6186-9.61868Zm0 2.65342c3.8625 0 6.9652 3.10273 6.9652 6.96526 0 1.8545-.7204 3.5294-1.8916 4.7743-.114.0826-.2142.1827-.2967.2967-1.2452 1.1727-2.9211 1.8942-4.7769 1.8942-3.86254 0-6.96526-3.1027-6.96526-6.9652 0-3.86253 3.10272-6.96526 6.96526-6.96526Z" opacity="0.43"/>
</svg>